:version 1.10
:name ASF
:units
  mass 1
  length 1
  angle deg
:documentation
  ASF file generated by Kaydara
:root
  axis xyz
  order  tx ty tz rx ry rz
  position 0 0 0
  orientation 0 0 0
:bonedata
  begin
    id 1
    name lfemurDummy
    direction 0.61522 -0.761478 0.204097
    length 5.68318
    axis 0 -0 0 xyz
  end
  begin
    id 2
    name lfemur
    direction 0.34202 -0.939693 -5.84747e-008
    length 16.9147
    axis 0 -0 20 xyz
    dof rx ry rz
    limits( -inf , inf )
( -inf , inf )
( -inf , inf )

  end
  begin
    id 3
    name ltibia
    direction 0.34202 -0.939693 1.20839e-009
    length 18.0532
    axis 0 -0 20 xyz
    dof rz ry rx
    limits( -inf , inf )
( -inf , inf )
( -inf , inf )

  end
  begin
    id 4
    name lfoot
    direction 0.0841971 -0.23133 0.969225
    length 5.23822
    axis -90 7.62852e-016 20 xyz
    dof ry rx rz
    limits( -inf , inf )
( -inf , inf )
( -inf , inf )

  end
  begin
    id 5
    name ltoes
    direction 0 0 0
    length 0
    axis 0 0 0 xyz
    dof rz ry rx
    limits( -inf , inf )
( -inf , inf )
( -inf , inf )

  end
  begin
    id 6
    name rfemurDummy
    direction -0.625247 -0.75382 0.202044
    length 5.74091
    axis 0 -0 0 xyz
  end
  begin
    id 7
    name rfemur
    direction -0.34202 -0.939693 -1.47013e-008
    length 16.4922
    axis 0 -0 -20 xyz
    dof rx ry rz
    limits( -inf , inf )
( -inf , inf )
( -inf , inf )

  end
  begin
    id 8
    name rtibia
    direction -0.34202 -0.939693 -7.74345e-010
    length 18.2421
    axis 0 -0 -20 xyz
    dof rz ry rx
    limits( -inf , inf )
( -inf , inf )
( -inf , inf )

  end
  begin
    id 9
    name rfoot
    direction -0.124331 -0.341598 0.931586
    length 5.45787
    axis -90 -7.62852e-016 -20 xyz
    dof ry rx rz
    limits( -inf , inf )
( -inf , inf )
( -inf , inf )

  end
  begin
    id 10
    name rtoes
    direction 0 0 0
    length 0
    axis 0 0 0 xyz
    dof rz ry rx
    limits( -inf , inf )
( -inf , inf )
( -inf , inf )

  end
  begin
    id 11
    name lowerbackDummy
    direction 0 0 0
    length 0
    axis 0 -0 0 xyz
  end
  begin
    id 12
    name lowerback
    direction -0.0218484 0.994884 -0.0986304
    length 4.45607
    axis 0 -0 0 xyz
    dof rx ry rz
    limits( -inf , inf )
( -inf , inf )
( -inf , inf )

  end
  begin
    id 13
    name upperback
    direction -0.00973057 0.999717 -0.0217111
    length 4.47449
    axis 0 -0 0 xyz
    dof rx ry rz
    limits( -inf , inf )
( -inf , inf )
( -inf , inf )

  end
  begin
    id 14
    name thorax
    direction -0.000928171 0.999699 0.0245198
    length 4.50973
    axis 0 -0 0 xyz
    dof rx ry rz
    limits( -inf , inf )
( -inf , inf )
( -inf , inf )

  end
  begin
    id 15
    name rclavicle
    direction -0.9009 0.425937 -0.0834055
    length 7.28587
    axis 0 -0 0 xyz
    dof rx ry rz
    limits( -inf , inf )
( -inf , inf )
( -inf , inf )

  end
  begin
    id 16
    name rhumerus
    direction -1 -2.23604e-007 -1.42637e-007
    length 13.5704
    axis 180 30 90 xyz
    dof rx ry rz
    limits( -inf , inf )
( -inf , inf )
( -inf , inf )

  end
  begin
    id 17
    name rradius
    direction -1 5.68281e-008 -4.4952e-007
    length 8.06782
    axis 180 30 90 xyz
    dof rz ry rx
    limits( -inf , inf )
( -inf , inf )
( -inf , inf )

  end
  begin
    id 18
    name rwrist
    direction -1 1.51393e-007 1.38143e-007
    length 4.03391
    axis -90 -90 0 xyz
    dof rz rx ry
    limits( -inf , inf )
( -inf , inf )
( -inf , inf )

  end
  begin
    id 19
    name rthumb
    direction 0 0 0
    length 0
    axis 0 0 0 xyz
    dof ry rx rz
    limits( -inf , inf )
( -inf , inf )
( -inf , inf )

  end
  begin
    id 20
    name rhand
    direction -1 -3.34077e-007 -5.59631e-007
    length 1.29744
    axis -90 -90 0 xyz
    dof ry rx rz
    limits( -inf , inf )
( -inf , inf )
( -inf , inf )

  end
  begin
    id 21
    name rfingers
    direction 0 0 0
    length 0
    axis 0 0 0 xyz
    dof rz ry rx
    limits( -inf , inf )
( -inf , inf )
( -inf , inf )

  end
  begin
    id 22
    name lclavicle
    direction 0.940017 0.332249 -0.0773232
    length 8.29589
    axis 0 -0 0 xyz
    dof rx ry rz
    limits( -inf , inf )
( -inf , inf )
( -inf , inf )

  end
  begin
    id 23
    name lhumerus
    direction 1 7.41158e-008 -1.44768e-008
    length 12.0042
    axis 180 -30 -90 xyz
    dof rx ry rz
    limits( -inf , inf )
( -inf , inf )
( -inf , inf )

  end
  begin
    id 24
    name lradius
    direction 1 -1.32972e-007 3.10821e-007
    length 8.1902
    axis 180 -30 -90 xyz
    dof rz ry rx
    limits( -inf , inf )
( -inf , inf )
( -inf , inf )

  end
  begin
    id 25
    name lwrist
    direction 1 3.08957e-007 4.01394e-007
    length 4.09509
    axis -90 90 0 xyz
    dof rz rx ry
    limits( -inf , inf )
( -inf , inf )
( -inf , inf )

  end
  begin
    id 26
    name lthumb
    direction 0 0 0
    length 0
    axis 0 0 0 xyz
    dof ry rx rz
    limits( -inf , inf )
( -inf , inf )
( -inf , inf )

  end
  begin
    id 27
    name lhand
    direction 1 -1.64125e-007 -6.99514e-007
    length 1.37229
    axis -90 90 0 xyz
    dof ry rx rz
    limits( -inf , inf )
( -inf , inf )
( -inf , inf )

  end
  begin
    id 28
    name lfingers
    direction 0 0 0
    length 0
    axis 0 0 0 xyz
    dof rz ry rx
    limits( -inf , inf )
( -inf , inf )
( -inf , inf )

  end
  begin
    id 29
    name lowerneck
    direction -0.030798 0.998024 0.0547665
    length 3.93918
    axis 0 -0 0 xyz
    dof rx ry rz
    limits( -inf , inf )
( -inf , inf )
( -inf , inf )

  end
  begin
    id 30
    name upperneck
    direction 0.0531588 0.996611 -0.0627736
    length 3.95491
    axis 0 -0 0 xyz
    dof rx ry rz
    limits( -inf , inf )
( -inf , inf )
( -inf , inf )

  end
  begin
    id 31
    name head
    direction 0 0 0
    length 0
    axis 0 0 0 xyz
    dof rx ry rz
    limits( -inf , inf )
( -inf , inf )
( -inf , inf )

  end
:hierarchy
  begin
    root lfemurDummy rfemurDummy lowerbackDummy
    lfemurDummy lfemur
    lfemur ltibia
    ltibia lfoot
    lfoot ltoes
    rfemurDummy rfemur
    rfemur rtibia
    rtibia rfoot
    rfoot rtoes
    lowerbackDummy lowerback
    lowerback upperback
    upperback thorax
    thorax rclavicle lclavicle lowerneck
    rclavicle rhumerus
    rhumerus rradius
    rradius rwrist
    rwrist rthumb rhand
    rhand rfingers
    lclavicle lhumerus
    lhumerus lradius
    lradius lwrist
    lwrist lthumb lhand
    lhand lfingers
    lowerneck upperneck
    upperneck head
  end

:SAMPLES-PER-SECOND 30
:FULLY-SPECIFIED
:DEGREES
39
root  -3.981800154 37.19711003 7.467155757 22.33398438 -70.81600189 -24.14599609
lowerback  11.2343998 -2.429209948 -5.164050102
upperback  1.73210001 -3.836179972 1.13985002
thorax  -4.056709766 -1.843080044 4.648829937
lowerneck  -11.89220047 13.24349976 -6.06276989
upperneck  17.13559914 19.46229935 -2.180900097
head  6.856430054 8.637029648 1.95728004
lclavicle  0 -9.442270133e-015 7.951389973e-016
lhumerus  37.83229828 1.496979952 43.53099823
lradius  -1.232076215e-031 -3.30920417e-031 69.57879639
lwrist  0 -1.765562519e-031 16.36829948
lhand  -1.496451383e-031 -27.76390076 20.11240005
lfingers  90 7.125020027 -90
lthumb  89.89689403 5.08795885 91.16245106
rclavicle  0 -9.442270133e-015 7.951389973e-016
rhumerus  -46.14390182 26.83510017 -76.80419922
rradius  -2.035353764e-031 2.885511929e-031 125.197998
rwrist  7.062250077e-031 8.827812596e-032 -19.11790085
rhand  -7.920061211e-032 -33.2840004 9.303460121
rfingers  -90 -7.125020027 -90
rthumb  -92.93752616 -24.25625642 -97.11982154
rfemur  17.42849922 25.95590019 23.11230087
rtibia  -0 0 39.63019943
rfoot  -5.414755269e-032 23.50029945 -0.6554579735
rtoes  5.373923086 19.29304026 -105.8922705
lfemur  -38.17309952 -6.737319946 8.137519836
ltibia  -0 0 44.87020111
lfoot  4.425024389e-032 -4.062429905 2.068380117
ltoes  -4.250644065 -19.5611806 -102.515957
40
root  -4.29315567 37.20355597 7.671755693 21.80700684 -68.17700195 -23.32098389
lowerback  10.87989998 -2.377389908 -4.943130016
upperback  1.495309949 -3.728300095 0.9495509863
thorax  -4.148439884 -1.781669974 4.297860146
lowerneck  -11.79380035 12.59609985 -6.74943018
upperneck  16.94470024 18.51740074 -1.245700002
head  6.63365984 8.255410194 2.225929976
lclavicle  0 -9.442270133e-015 7.951389973e-016
lhumerus  38.47119904 -1.745129943 45.53649902
lradius  -9.446140079e-032 -3.40243272e-031 74.4838028
lwrist  0 8.827812596e-032 25.34449959
lhand  -1.496451383e-031 -27.76390076 20.11240005
lfingers  90 7.125020027 -90
lthumb  89.89689403 5.08795885 91.16245106
rclavicle  0 -9.442270133e-015 7.951389973e-016
rhumerus  -42.58890152 27.13409996 -73.75060272
rradius  -2.145845763e-031 2.804316316e-031 127.4229965
rwrist  7.062250077e-031 -0 -16.08709908
rhand  -7.920061211e-032 -33.2840004 9.303460121
rfingers  -90 -7.125020027 -90
rthumb  -92.93752616 -24.25625642 -97.11982154
rfemur  18.06979942 23.95249939 24.70929909
rtibia  -0 0 39.23279953
rfoot  -4.81380651e-032 23.51919937 -0.9880530238
rtoes  5.373923086 19.29304026 -105.8922705
lfemur  -39.60229874 -8.682160378 8.858969688
ltibia  -0 0 45.24229813
lfoot  6.640969285e-032 -4.460010052 1.80253005
ltoes  -4.250644065 -19.5611806 -102.515957
41
root  -4.544088784 37.08133247 7.862489055 20.79302979 -65.68299866 -22.08197021
lowerback  10.92879963 -2.17305994 -4.846030235
upperback  1.139320016 -3.469300032 0.5252190232
thorax  -4.610060215 -1.631590009 3.780119896
lowerneck  -11.0468998 11.84879971 -6.994619846
upperneck  16.41990089 17.30200005 -0.4156540036
head  6.266139984 7.787310123 2.335700035
lclavicle  0 -9.442270133e-015 7.951389973e-016
lhumerus  39.20019913 -5.416910172 47.58620071
lradius  -6.862106027e-032 -3.463807016e-031 78.79429626
lwrist  -1.412450015e-030 1.765562519e-031 31.99060059
lhand  -1.496451383e-031 -27.76390076 20.11240005
lfingers  90 7.125020027 -90
lthumb  89.89689403 5.08795885 91.16245106
rclavicle  0 -9.442270133e-015 7.951389973e-016
rhumerus  -38.98669815 26.92090034 -70.41660309
rradius  -2.255711424e-031 2.716727813e-031 129.7030029
rwrist  7.062250077e-031 -0 -14.12069988
rhand  -7.920061211e-032 -33.2840004 9.303460121
rfingers  -90 -7.125020027 -90
rthumb  -92.93752616 -24.25625642 -97.11982154
rfemur  18.46719933 21.61129951 25.79059982
rtibia  -0 0 39.45339966
rfoot  -4.783795093e-032 22.67910004 -1.366580009
rtoes  5.373923086 19.29304026 -105.8922705
lfemur  -41.36500168 -10.1072998 9.23470974
ltibia  -0 0 46.42430115
lfoot  4.431486169e-032 -5.105219841 0.8366870284
ltoes  -4.250644065 -19.5611806 -102.515957
42
root  -4.757755385 36.9866679 8.021177457 19.09100342 -63.26300049 -20.25
lowerback  11.20100021 -1.580569983 -5.232709885
upperback  0.9537159801 -2.779759884 -0.04661019892
thorax  -5.035560131 -1.270230055 3.320669889
lowerneck  -10.35400009 10.76360035 -7.218999863
upperneck  16.07719994 15.56379986 0.9925640225
head  5.950240135 7.100399971 2.609019995
lclavicle  0 -9.442270133e-015 7.951389973e-016
lhumerus  40.2655983 -10.38570023 49.54840088
lradius  -5.099530759e-032 -3.494108169e-031 81.69650269
lwrist  -1.412450015e-030 3.531125038e-031 27.92819977
lhand  -1.496451383e-031 -27.76390076 20.11240005
lfingers  90 7.125020027 -90
lthumb  89.89689403 5.08795885 91.16245106
rclavicle  0 -9.442270133e-015 7.951389973e-016
rhumerus  -35.06869888 25.42980003 -66.31539917
rradius  -2.353057863e-031 2.63286208e-031 131.7879944
rwrist  0 -0 -13.60400009
rhand  -7.920061211e-032 -33.2840004 9.303460121
rfingers  -90 -7.125020027 -90
rthumb  -92.93752616 -24.25625642 -97.11982154
rfemur  18.7098999 18.94519997 26.35370064
rtibia  -0 0 40.13949966
rfoot  -4.736306501e-032 21.26230049 -1.509600043
rtoes  5.373923086 19.29304026 -105.8922705
lfemur  -43.27970123 -11.61789989 9.121959686
ltibia  -0 0 47.91120148
lfoot  4.711195137e-032 -5.465670109 0.3826290071
ltoes  -4.250644065 -19.5611806 -102.515957
43
root  -4.950622123 36.91311033 8.142577945 17.31896973 -60.96800232 -18.30200195
lowerback  11.55049992 -0.8081020117 -5.486390114
upperback  0.8579419851 -1.876209974 -1.036120057
thorax  -5.442759991 -0.8185960054 2.303499937
lowerneck  -9.721650124 9.485739708 -7.523459911
upperneck  15.83059978 13.46249962 3.307229996
head  5.646460056 6.290400028 3.174479961
lclavicle  0 -9.442270133e-015 7.951389973e-016
lhumerus  41.14569855 -15.58189964 51.00350189
lradius  -3.642974467e-032 -3.512282934e-031 84.07839966
lwrist  -1.412450015e-030 8.827812596e-032 20.8798008
lhand  -1.496451383e-031 -27.76390076 20.11240005
lfingers  90 7.125020027 -90
lthumb  89.89689403 5.08795885 91.16245106
rclavicle  0 -9.442270133e-015 7.951389973e-016
rhumerus  -31.12330055 23.01040077 -62.38219833
rradius  -2.421351849e-031 2.570194402e-031 133.2920074
rwrist  1.412450015e-030 -3.531125038e-031 -13.92689991
rhand  -7.920061211e-032 -33.2840004 9.303460121
rfingers  -90 -7.125020027 -90
rthumb  -92.93752616 -24.25625642 -97.11982154
rfemur  18.54529953 16.14410019 26.57229996
rtibia  -0 0 41.24330139
rfoot  -5.273144404e-032 19.66340065 -0.4500559866
rtoes  5.373923086 19.29304026 -105.8922705
lfemur  -45.25979996 -13.19309998 8.843370438
ltibia  -0 0 49.36729813
lfoot  4.712017276e-032 -5.569169998 0.147517994
ltoes  -4.250644065 -19.5611806 -102.515957
44
root  -5.145955649 36.84666551 8.221289117 15.94000244 -58.81700134 -16.6550293
lowerback  11.80459976 -0.005338639952 -5.673190117
upperback  0.7554090023 -0.9384130239 -2.116770029
thorax  -5.784369946 -0.3616909981 1.127910018
lowerneck  -9.025119781 8.180709839 -8.096670151
upperneck  15.69919968 11.31369972 6.009580135
head  5.38781023 5.443649769 3.927740097
lclavicle  0 -9.442270133e-015 7.951389973e-016
lhumerus  41.3022995 -20.78210068 51.78720093
lradius  -2.078679649e-032 -3.525001411e-031 86.62519836
lwrist  -1.412450015e-030 -0 16.11450005
lhand  -1.496451383e-031 -27.76390076 20.11240005
lfingers  90 7.125020027 -90
lthumb  89.89689403 5.08795885 91.16245106
rclavicle  0 -9.442270133e-015 7.951389973e-016
rhumerus  -26.80120087 20.40800095 -58.30400085
rradius  -2.457310799e-031 2.535836681e-031 134.098999
rwrist  7.062250077e-031 -0 -14.72630024
rhand  -7.920061211e-032 -33.2840004 9.303460121
rfingers  -90 -7.125020027 -90
rthumb  -92.93752616 -24.25625642 -97.11982154
rfemur  18.05410004 13.46829987 26.77770042
rtibia  -0 0 42.48830032
rfoot  -5.800537285e-032 17.9762001 1.493360043
rtoes  5.373923086 19.29304026 -105.8922705
lfemur  -46.98590088 -14.29850006 8.441960335
ltibia  -0 0 50.46350098
lfoot  4.990583342e-032 -5.730340004 -0.4442580044
ltoes  -4.250644065 -19.5611806 -102.515957
45
root  -5.357800131 36.79177892 8.279444477 14.94598389 -56.84999847 -15.17999268
lowerback  11.5866003 0.7965859771 -5.868319988
upperback  0.712372005 0.03079820052 -3.178509951
thorax  -5.768519878 0.09691350162 -0.03996140137
lowerneck  -8.272439957 6.96916008 -8.886509895
upperneck  15.69009972 9.318200111 8.708479881
head  5.205249786 4.630080223 4.75853014
lclavicle  0 -9.442270133e-015 7.951389973e-016
lhumerus  40.97159958 -25.73769951 52.11819839
lradius  -3.7445376e-033 -3.53092649e-031 89.39240265
lwrist  -1.412450015e-030 -1.765562519e-031 15.87679958
lhand  -1.496451383e-031 -27.76390076 20.11240005
lfingers  90 7.125020027 -90
lthumb  89.89689403 5.08795885 91.16245106
rclavicle  0 -9.442270133e-015 7.951389973e-016
rhumerus  -21.99629974 18.36039925 -54.2859993
rradius  -2.467338432e-031 2.526080976e-031 134.326004
rwrist  7.062250077e-031 -0 -15.13599968
rhand  -7.920061211e-032 -33.2840004 9.303460121
rfingers  -90 -7.125020027 -90
rthumb  -92.93752616 -24.25625642 -97.11982154
rfemur  17.17720032 10.91959953 26.89719963
rtibia  -0 0 43.81949997
rfoot  -9.19527285e-032 16.25239944 3.727669954
rtoes  5.373923086 19.29304026 -105.8922705
lfemur  -48.55080032 -15.01550007 7.951019764
ltibia  -0 0 51.24560165
lfoot  5.54660226e-032 -5.883699894 -1.015509963
ltoes  -4.250644065 -19.5611806 -102.515957
